<svg xmlns="http://www.w3.org/2000/svg" width="42" height="42" viewBox="0 0 42 42">
  <path id="instagram" d="M21,42A21,21,0,0,1,6.151,6.151a21,21,0,1,1,29.7,29.7A20.862,20.862,0,0,1,21,42ZM21,3.5A17.5,17.5,0,1,0,38.5,21,17.52,17.52,0,0,0,21,3.5Zm0,28c-2.814,0-3.19-.012-4.329-.064-3.821-.175-5.933-2.287-6.108-6.107C10.512,24.213,10.5,23.841,10.5,21s.012-3.211.063-4.329c.175-3.819,2.287-5.931,6.108-6.106C17.8,10.511,18.141,10.5,21,10.5s3.222.012,4.33.065c3.823.173,5.934,2.284,6.106,6.106.052,1.139.064,1.515.064,4.329s-.012,3.192-.064,4.329c-.171,3.82-2.283,5.931-6.106,6.107C24.192,31.488,23.816,31.5,21,31.5Zm0-19.106c-2.774,0-3.118.007-4.242.059-2.847.13-4.175,1.458-4.306,4.306-.047,1.077-.061,1.4-.061,4.242s.014,3.165.061,4.242c.132,2.846,1.46,4.174,4.306,4.3,1.1.051,1.435.061,4.242.061,2.776,0,3.112-.011,4.243-.061,2.845-.129,4.173-1.456,4.306-4.3.049-1.113.059-1.446.059-4.242s-.01-3.128-.059-4.242c-.132-2.847-1.46-4.175-4.306-4.3C24.138,12.4,23.807,12.394,21,12.394Zm0,14A5.392,5.392,0,1,1,26.391,21,5.4,5.4,0,0,1,21,26.391ZM21,17.5A3.5,3.5,0,1,0,24.5,21,3.5,3.5,0,0,0,21,17.5Zm5.6-.843a1.26,1.26,0,1,1,1.263-1.26A1.261,1.261,0,0,1,26.6,16.657Z" fill="rgba(157,156,156,0.5)"/>
</svg>
