<svg xmlns="http://www.w3.org/2000/svg" width="42" height="42" viewBox="0 0 42 42">
  <path id="twitter" d="M21,42A21,21,0,0,1,6.151,6.151a21,21,0,1,1,29.7,29.7A20.862,20.862,0,0,1,21,42ZM21,3.5A17.5,17.5,0,1,0,38.5,21,17.52,17.52,0,0,0,21,3.5ZM17.977,30.407a12.207,12.207,0,0,1-6.6-1.935,8.839,8.839,0,0,0,1.029.061,8.607,8.607,0,0,0,5.353-1.848,4.31,4.31,0,0,1-4.026-2.991,4.318,4.318,0,0,0,1.947-.073,4.328,4.328,0,0,1-3.456-4.278,4.331,4.331,0,0,0,1.949.539,4.319,4.319,0,0,1-1.334-5.753,12.279,12.279,0,0,0,8.879,4.5A4.31,4.31,0,0,1,29.058,14.7,8.6,8.6,0,0,0,31.8,13.656,4.323,4.323,0,0,1,29.9,16.04a8.6,8.6,0,0,0,2.474-.679,8.627,8.627,0,0,1-2.15,2.23,12.7,12.7,0,0,1-3.464,9.17A11.812,11.812,0,0,1,17.977,30.407Z" fill="rgba(157,156,156,0.5)"/>
</svg>
