<svg xmlns="http://www.w3.org/2000/svg" width="25.004" height="24.999" viewBox="0 0 25.004 24.999">
  <path id="Exclusion_1" data-name="Exclusion 1" d="M-19931-7407a12.016,12.016,0,0,1-12-12,11.915,11.915,0,0,1,3.516-8.483A11.927,11.927,0,0,1-19931-7431a11.927,11.927,0,0,1,8.486,3.514A11.915,11.915,0,0,1-19919-7419,12.016,12.016,0,0,1-19931-7407Zm0-22a10.011,10.011,0,0,0-10,10,10,10,0,0,0,2.252,6.312,2.363,2.363,0,0,1,1.867-1.246l.129-.029c1.574-.361,3.059-.7,3.445-1.554a1.5,1.5,0,0,0-.18-1.36c-1.627-3-1.957-5.6-.926-7.334A3.828,3.828,0,0,1-19931-7426a3.811,3.811,0,0,1,3.389,1.756c1.029,1.707.711,4.322-.9,7.363a1.511,1.511,0,0,0-.174,1.363c.385.844,1.877,1.189,3.455,1.555l.111.025a2.4,2.4,0,0,1,1.873,1.241A10.024,10.024,0,0,0-19921-7419,10.011,10.011,0,0,0-19931-7429Z" transform="translate(19943.502 7431.499)" fill="#fff" stroke="rgba(0,0,0,0)" stroke-miterlimit="10" stroke-width="1"/>
</svg>
